<!DOCTYPE svg PUBLIC "-//W3C//DTD SVG 1.1//EN" "http://www.w3.org/Graphics/SVG/1.1/DTD/svg11.dtd">
<!-- Uploaded to: SVG Repo, www.svgrepo.com, Transformed by: SVG Repo Mixer Tools -->
<svg version="1.1" id="Uploaded to svgrepo.com" xmlns="http://www.w3.org/2000/svg" xmlns:xlink="http://www.w3.org/1999/xlink" width="800px" height="800px" viewBox="0 0 32 32" xml:space="preserve" fill="#000000">
<g id="SVGRepo_bgCarrier" stroke-width="0"/>
<g id="SVGRepo_tracerCarrier" stroke-linecap="round" stroke-linejoin="round"/>
<g id="SVGRepo_iconCarrier"> <style type="text/css"> .bentblocks_een{fill:#DDE1E6;} </style> <path class="bentblocks_een" d="M24,15v2h-7v7h-2v-7H8v-2h7V8h2v7H24z M24.485,24.485c-4.686,4.686-12.284,4.686-16.971,0 c-4.686-4.686-4.686-12.284,0-16.971c4.687-4.686,12.284-4.686,16.971,0C29.172,12.201,29.172,19.799,24.485,24.485z M23.071,8.929 c-3.842-3.842-10.167-3.975-14.142,0c-3.899,3.899-3.899,10.243,0,14.142c3.975,3.975,10.301,3.841,14.142,0 C26.97,19.172,26.97,12.828,23.071,8.929z"/> </g>
</svg>